<svg width="140" height="140" viewBox="0 0 140 140" fill="none" xmlns="http://www.w3.org/2000/svg"><path d="M140 70C140 108.66 108.66 140 70 140 31.3401 140 0 108.66.0 70 0 31.3401 31.3401.0 70 0c38.66.0 70 31.3401 70 70z" fill="#dbe777"/><path d="M35.0001 9.40002C1.50006 28.7-9.89994 71.5 9.40006 105 28.7001 138.5 71.5001 149.9 105 130.6L35.0001 9.40002z" fill="#dbe777"/><path d="M105 130.6C138.5 111.3 149.9 68.5 130.6 35 111.3 1.5 68.5-9.9 35 9.4L105 130.6z" fill="#e8f0aa"/><path d="M54.0198 118H55.9178L52.5898 109.043H50.6398L47.2988 118H49.2228L49.9378 115.855H53.2918L54.0198 118zM50.4708 114.282 51.6018 110.915 52.7458 114.282H50.4708z" fill="#012cb3"/><path d="M65.0469 109.043 63.2139 114.88 61.9789 110.304H60.5099L59.2489 114.88 57.4289 109.043H55.4789L58.5079 118H59.9509L61.2249 113.138 62.5249 118H63.9679L67.0099 109.043H65.0469z" fill="#012cb3"/><path d="M73.2786 118H75.1766L71.8486 109.043H69.8986L66.5576 118H68.4816L69.1966 115.855H72.5506L73.2786 118zM69.7296 114.282 70.8606 110.915 72.0046 114.282H69.7296z" fill="#012cb3"/><path d="M80.7578 118H82.8768L80.5498 114.698C82.0578 114.386 82.7208 113.242 82.7208 111.968 82.7208 110.499 81.8368 109.043 79.7828 109.043H76.2078V118H78.0148V114.789H78.6258L80.7578 118zM78.0148 110.642H79.6008C80.4458 110.642 80.9008 111.292 80.9008 112.007 80.9008 112.722 80.4718 113.333 79.4578 113.333H78.0148V110.642z" fill="#012cb3"/><path d="M84.4724 118H87.9824C90.5564 118 92.0514 116.076 92.0514 113.541 92.0514 110.993 90.5564 109.043 87.9824 109.043H84.4724V118zM86.2794 116.401v-5.759H87.9824C89.4774 110.642 90.2444 112.007 90.2444 113.541 90.2444 115.075 89.4774 116.401 87.9824 116.401H86.2794z" fill="#012cb3"/><path d="M37.5156 1e2H43.9156V98.032H39.7396V88.976H37.5156V1e2z" fill="#012cb3"/><path d="M45.5781 1e2H47.8021V88.976H45.5781V1e2z" fill="#012cb3"/><path d="M57.3004 90.944V88.976H50.4844V1e2H52.7084V95.552H56.3564V93.6H52.7084V90.944H57.3004z" fill="#012cb3"/><path d="M61.3803 98.032V95.568H65.4923v-2H61.3803V90.944H66.0683V88.976H59.1562V1e2H66.2123V98.032H61.3803z" fill="#012cb3"/><path d="M75.6237 88.976H67.3197V90.944H70.3597V1e2H72.5837V90.944H75.6237V88.976z" fill="#012cb3"/><path d="M77.2812 1e2H79.5052V88.976H77.2812V1e2z" fill="#012cb3"/><path d="M94.8915 1e2 93.5475 88.976H91.6275L88.2515 96.208 84.8435 88.976H82.9555L81.5955 1e2H83.8675L84.6675 93.168 87.3875 98.752H89.1315L91.8195 93.168 92.6195 1e2H94.8915z" fill="#012cb3"/><path d="M99.2084 98.032V95.568H103.32v-2H99.2084V90.944H103.896V88.976H96.9844V1e2H104.04V98.032H99.2084z" fill="#012cb3"/><path d="M64.34 72.252C64.1533 72.2574 45.6486 72.6606 35.0908 54.061 35.0177 53.9339 34.8581 53.8879 34.7297 53.9596 34.5227 54.0746 34.451 54.3356 34.5687 54.5398 45.3523 73.3734 64.1735 72.9514 64.3643 72.942L64.34 72.252z" fill="#012cb3"/><path d="M45.5982 74.2257C50.918 76.9567 53.7301 72.2156 53.7301 72.2156 48.7119 69.3479 45.5982 74.2257 45.5982 74.2257z" fill="#012cb3"/><path d="M47.3067 69.1548C43.0337 74.4746 38.5673 70.1759 38.5673 70.1759 43.0905 65.4878 47.3067 69.1548 47.3067 69.1548z" fill="#012cb3"/><path d="M32.3531 64.002C38.3871 69.0297 41.5886 64.6564 41.5886 64.6564 36.7384 59.1894 32.3531 64.002 32.3531 64.002z" fill="#012cb3"/><path d="M26.9677 53.528C29.7783 61.3568 35.9216 58.9599 35.9216 58.9599 33.1922 52.3214 26.9677 53.528 26.9677 53.528z" fill="#012cb3"/><path d="M29.6092 45.3742C27.7073 51.7395 34.2798 53.4099 34.2798 53.4099 34.9021 45.1541 29.6092 45.3742 29.6092 45.3742z" fill="#012cb3"/><path d="M53.4444 61.3104C49.8952 66.94 54.6875 70.0875 54.6875 70.0875 58.6397 64.2986 53.4431 61.3091 53.4444 61.3104z" fill="#012cb3"/><path d="M47.1421 57.1121C44.0272 62.8727 48.4368 66.6764 48.4368 66.6764 52.9584 62.3765 47.1421 57.1121 47.1421 57.1121z" fill="#012cb3"/><path d="M42.6504 53.0049C38.2126 57.8268 43.0628 62.4582 43.0628 62.4582 46.5363 59.9775 42.6504 53.0049 42.6504 53.0049z" fill="#012cb3"/><path d="M37.8271 48.1816C34.2995 53.089 38.1357 56.6462 38.1357 56.6462 41.8877 52.3503 37.8271 48.1816 37.8271 48.1816z" fill="#012cb3"/><path d="M78.374 72.252C78.5606 72.2574 97.0653 72.6606 107.623 54.061 107.696 53.9339 107.856 53.8879 107.984 53.9596 108.191 54.0746 108.263 54.3356 108.145 54.5398 97.3616 73.3734 78.5405 72.9514 78.3497 72.942L78.374 72.252z" fill="#012cb3"/><path d="M97.1157 74.2256C91.7959 76.9565 88.9837 72.2155 88.9837 72.2155 94.002 69.3479 97.1157 74.2256 97.1157 74.2256z" fill="#012cb3"/><path d="M95.4072 69.1548C99.6802 74.4746 104.147 70.1759 104.147 70.1759 99.6234 65.4878 95.4072 69.1548 95.4072 69.1548z" fill="#012cb3"/><path d="M110.361 64.002C104.327 69.0297 101.125 64.6564 101.125 64.6564 105.975 59.1894 110.361 64.002 110.361 64.002z" fill="#012cb3"/><path d="M115.746 53.5279C112.936 61.3568 106.792 58.9599 106.792 58.9599 109.522 52.3214 115.746 53.5279 115.746 53.5279z" fill="#012cb3"/><path d="M113.105 45.3742C115.007 51.7395 108.434 53.4099 108.434 53.4099 107.812 45.1541 113.105 45.3742 113.105 45.3742z" fill="#012cb3"/><path d="M89.2694 61.3104C92.8187 66.94 88.0263 70.0875 88.0263 70.0875 84.0742 64.2986 89.2708 61.3091 89.2694 61.3104z" fill="#012cb3"/><path d="M95.5718 57.1121C98.6866 62.8727 94.2771 66.6764 94.2771 66.6764 89.7555 62.3765 95.5718 57.1121 95.5718 57.1121z" fill="#012cb3"/><path d="M100.063 53.0049C104.501 57.8268 99.6511 62.4582 99.6511 62.4582 96.1776 59.9775 100.063 53.0049 100.063 53.0049z" fill="#012cb3"/><path d="M104.887 48.1816C108.414 53.089 104.578 56.6462 104.578 56.6462 100.826 52.3503 104.887 48.1816 104.887 48.1816z" fill="#012cb3"/><path d="M69.2078 26 66.2003 31.2086 63.1929 36.4141 62.4182 35.0599 57.1875 26.0002 69.2078 26z" fill="#012cb3"/><path d="M58.0972 32.4182 61.1046 37.6236H49.0781L55.0898 27.2095 58.0972 32.4182z" fill="#012cb3"/><path d="M71.3018 27.2095 77.3165 37.6236H65.29L68.2975 32.4182 71.3018 27.2095z" fill="#012cb3"/><path d="M85.4196 26.0001 82.4122 31.2087 79.4048 36.4142 73.3994 26 85.4196 26.0001z" fill="#012cb3"/><path d="M87.5168 27.2095 93.5285 37.6236H81.502L84.5094 32.4182 87.5168 27.2095z" fill="#012cb3"/><path d="M92.9323 40.042 74.2363 60.8985 80.3173 40.042H92.9323z" fill="#012cb3"/><path d="M77.7924 40.042 71.5445 61.4878 64.8369 40.042H77.7924z" fill="#012cb3"/><path d="M62.3043 40.042 68.8104 60.851 49.7363 40.042H62.3043z" fill="#012cb3"/></svg>