<svg width="140" height="140" viewBox="0 0 140 140" fill="none" xmlns="http://www.w3.org/2000/svg"><path d="M140 70C140 108.66 108.66 140 70 140 31.3401 140 0 108.66.0 70 0 31.3401 31.3401.0 70 0c38.66.0 70 31.3401 70 70z" fill="#012cb3"/><path d="M35.0001 9.40002C1.50006 28.7-9.89994 71.5 9.40006 105 28.7001 138.5 71.5001 149.9 105 130.6L35.0001 9.40002z" fill="#012cb3"/><path d="M105 130.6C138.5 111.3 149.9 68.5 130.6 35 111.3 1.5 68.5-9.9 35 9.4L105 130.6z" fill="#436df1"/><path d="M32.6071 89.1774 36.0471 85.0774C36.9071 84.0774 37.5471 82.7774 37.5471 81.6974 37.5471 79.3774 35.9071 77.8174 33.3871 77.8174 31.0671 77.8174 29.5071 79.1974 29.2471 81.2774L31.0071 81.6374C31.1271 80.4574 32.0271 79.6774 33.3671 79.6774 34.7071 79.6774 35.5871 80.4774 35.5871 81.6974 35.5871 82.2574 35.0671 83.2374 34.2871 84.1774L29.3671 90.1374V91.0574H37.7471V89.1774H32.6071z" fill="#fff"/><path d="M44.7168 91.2574C48.4768 91.2574 49.4768 88.2374 49.4768 84.5574 49.4768 80.8174 48.4768 77.8174 44.7168 77.8174 40.9368 77.8174 39.9568 80.8174 39.9568 84.5574 39.9568 88.2374 40.9368 91.2574 44.7168 91.2574zM44.7168 89.3974C42.4968 89.3974 41.9168 87.1974 41.9168 84.5574 41.9168 81.8974 42.4968 79.6774 44.7168 79.6774 46.9368 79.6774 47.4968 81.8974 47.4968 84.5574 47.4968 87.1974 46.9368 89.3974 44.7168 89.3974z" fill="#fff"/><path d="M96.2571 77.8174 91.5771 79.8774V81.7574L94.3971 80.6374V91.0574H96.3571V77.8174H96.2571z" fill="#fff"/><path d="M106.584 83.5374C107.384 83.0574 107.944 82.2174 107.944 81.0974 107.944 79.2174 106.364 77.8174 104.124 77.8174 101.864 77.8174 100.284 79.2174 100.284 81.0974 100.284 82.2174 100.844 83.0574 101.644 83.5374 100.164 84.0774 99.1642 85.4974 99.1642 87.1774 99.1642 89.5974 101.264 91.2574 104.124 91.2574 106.964 91.2574 109.044 89.5974 109.044 87.1574 109.044 85.4974 108.064 84.0974 106.584 83.5374zM104.124 79.5974C105.144 79.5974 105.924 80.3574 105.924 81.2774 105.924 82.1974 105.144 82.8974 104.124 82.8974 103.104 82.8974 102.324 82.1974 102.324 81.2774 102.324 80.3574 103.104 79.5974 104.124 79.5974zM104.124 89.4174C102.484 89.4174 101.224 88.3974 101.224 86.9974 101.224 85.5574 102.524 84.4974 104.124 84.4974 105.684 84.4974 106.984 85.5374 106.984 87.0174 106.984 88.3774 105.824 89.4174 104.124 89.4174z" fill="#fff"/><path d="M82.6196 54.7398C82.7492 53.3944 82.7492 52.1827 82.7492 50.7009H56.6662C56.6662 52.1827 56.6662 53.3944 56.7958 54.7398H48.8408V56.0852C48.8408 68.068 63.5795 76.5496 67.1009 78.4327L67.0985 83.0117C67.0985 85.3012 65.4038 87.0505 63.1858 87.0505H60.5765V92.4348H78.8366V87.0505H76.2273C74.0093 87.0505 72.3146 85.3012 72.3146 83.0117V78.4352C75.836 76.5495 90.5747 68.0679 90.5747 56.0877V54.7423L82.6196 54.7398zM51.5797 57.4332H57.0575C57.5783 63.4915 59.0138 67.8005 60.5789 70.8952 56.4045 67.5303 52.1005 62.8175 51.5797 57.4332zM78.9686 70.8952C80.5337 67.7979 81.9692 63.4915 82.49 57.4332H87.9678C87.3149 62.8175 83.0109 67.5303 78.9686 70.8952z" fill="#fff"/><path fill-rule="evenodd" clip-rule="evenodd" d="M57.783 25C61.0625 25 63.6497 27.7284 63.3228 30.8074H53.9549C54.1116 32.6096 55.6925 34.0742 57.77 34.0742 59.3379 34.0742 60.6577 33.148 61.1673 31.9215H63.1141C62.4607 34.0618 60.3572 35.701 57.783 35.701 54.5689 35.701 52.1909 33.2227 52.1909 30.3569 52.1909 27.4908 54.5689 25 57.783 25zm33.2847.0C93.0641 25 94.301 26.2763 94.3142 28.1914L92.6137 28.1665C92.6005 27.2278 92.0851 26.5642 91.0677 26.5642 90.1916 26.5642 89.6374 27.0901 89.6374 27.8156 89.6374 28.7044 90.3846 28.9799 91.3636 29.3051 93.103 29.8812 94.7262 30.4067 94.7262 32.5843 94.7262 34.4741 93.1803 35.701 91.0929 35.701 88.877 35.701 87.4212 34.2489 87.4083 32.1965H89.1477C89.1734 33.2853 89.8432 34.124 91.0929 34.124 92.2013 34.124 92.9356 33.4728 92.9356 32.5594 92.9356 31.4831 92.0207 31.1828 90.7322 30.7696 89.0444 30.2313 87.898 29.4428 87.898 27.7911 87.898 26.239 89.2378 25 91.0677 25zM80.5218 25.1754C82.3775 25.1754 83.8542 26.0421 84.5467 27.3426V25.349H86.3107V35.5401H84.5467V33.5338C83.8542 34.822 82.3775 35.701 80.5218 35.701 77.5029 35.701 75.1508 33.3607 75.1508 30.4261 75.1508 27.5035 77.5029 25.1754 80.5218 25.1754zm-38.1186.0V26.8046H40.0846V35.4379H38.3194V26.8046H36V25.1754H42.4032zM45.0746 25.1754V29.3474H49.0494V25.1754H50.8188V35.4379H49.0494V30.967H45.0746v4.4709H43.3179V25.1754H45.0746zM70.454 25.1754C72.8767 25.1754 74.0879 26.0362 74.0879 27.894 74.0879 28.8915 73.6006 29.6023 72.7978 29.9387 73.9958 30.2382 74.6935 31.1734 74.6935 32.3453 74.6935 34.3527 73.3244 35.4379 70.3624 35.4379H67.65V25.1754H70.454zM97.6721 25.1754V29.3474H101.647V25.1754H103.416V35.4379H101.647V30.9666H97.6721V35.4379H95.9154V25.1754H97.6721zM80.7439 26.8349C78.6141 26.8349 76.9416 28.4198 76.9416 30.4261 76.9416 32.432 78.6141 34.0292 80.7439 34.0292 82.8612 34.0292 84.5337 32.432 84.5337 30.4261 84.5337 28.4198 82.8742 26.8349 80.7439 26.8349zM70.4937 30.7746H69.3615V33.8668H70.3227C72.0604 33.8668 72.8632 33.4924 72.8632 32.3329 72.8632 31.2358 72.0735 30.7746 70.4937 30.7746zM70.4937 26.6469H69.3615V29.4023H70.4937C71.718 29.4023 72.3894 29.0287 72.3894 28.056 72.3894 27.0089 71.7442 26.6469 70.4937 26.6469zM57.77 26.6019C55.954 26.6019 54.5039 27.8035 54.1116 29.3054H61.4284C61.0625 27.8035 59.573 26.6019 57.77 26.6019z" fill="#fff"/><path d="M48.7964 111.93C49.8437 111.617 50.123 110.677 50.123 109.982 50.123 108.565 49.0198 107.557 47.3023 107.557H43.4902V116.943h4.1053C49.718 116.943 50.6257 115.554 50.6257 114.26 50.6257 113.197 50.0252 112.134 48.7964 111.93zM47.1906 109.233C47.8748 109.233 48.182 109.682 48.182 110.255 48.182 110.895 47.805 111.29 47.1906 111.29H45.4312V109.233H47.1906zM47.3163 115.268H45.4312V112.87H47.3442C48.2658 112.87 48.6707 113.483 48.6707 114.069 48.6707 114.695 48.2239 115.268 47.3163 115.268z" fill="#fff"/><path d="M54.3357 115.268V113.17H57.9244V111.467H54.3357V109.233h4.0914V107.557H52.3948V116.943H58.5527V115.268H54.3357z" fill="#fff"/><path d="M63.3314 117.066C65.1466 117.066 66.7804 116.085 66.7804 114.219 66.7804 112.625 65.5097 111.876 64.0575 111.481L62.9823 111.181C61.9769 110.908 61.9071 110.418 61.9071 110.186 61.9071 109.56 62.4796 109.11 63.2336 109.11 64.0714 109.11 64.5462 109.628 64.5462 110.295H66.4871C66.4871 108.511 65.0908 107.435 63.2755 107.435 61.4323 107.435 59.9522 108.552 59.9522 110.227 59.9522 111.072 60.3292 112.312 62.4377 112.856L63.6106 113.183C64.4345 113.429 64.8255 113.796 64.8255 114.314 64.8255 114.982 64.253 115.417 63.3872 115.417 62.4935 115.417 61.8233 114.859 61.8093 114.178H59.8684C59.8684 115.84 61.2787 117.066 63.3314 117.066z" fill="#fff"/><path d="M74.6891 107.557H67.442V109.233H70.0951V116.943H72.0361V109.233H74.6891V107.557z" fill="#fff"/><path d="M83.3138 117.066C86.0367 117.066 88.215 114.913 88.215 112.257 88.215 109.587 86.0367 107.435 83.3138 107.435 80.5769 107.435 78.4265 109.587 78.4265 112.257 78.4265 114.913 80.5769 117.066 83.3138 117.066zM83.3138 115.295C81.5823 115.295 80.3674 113.946 80.3674 112.257 80.3674 110.568 81.5823 109.219 83.3138 109.219 85.0313 109.219 86.2601 110.568 86.2601 112.257 86.2601 113.946 85.0313 115.295 83.3138 115.295z" fill="#fff"/><path d="M95.9251 109.233V107.557H89.9766V116.943H91.9175V113.156H95.1013V111.494H91.9175V109.233H95.9251z" fill="#fff"/></svg>