<?xml version="1.0" encoding="utf-8"?>
<!-- Generator: Adobe Illustrator 16.0.0, SVG Export Plug-In . SVG Version: 6.00 Build 0)  -->
<!DOCTYPE svg PUBLIC "-//W3C//DTD SVG 1.1//EN" "http://www.w3.org/Graphics/SVG/1.1/DTD/svg11.dtd">
<svg version="1.1" id="Layer_1" xmlns="http://www.w3.org/2000/svg" xmlns:xlink="http://www.w3.org/1999/xlink" x="0px" y="0px"
	 width="144.241px" height="164px" viewBox="0 0 144.241 164" enable-background="new 0 0 144.241 164" xml:space="preserve">
<g>
	<g>
		<path fill="#FDD00F" d="M141.276,91.879c0,38.193-30.962,69.156-69.155,69.156c-38.195,0-69.158-30.963-69.158-69.156V72.121
			c0-38.197,30.962-69.157,69.158-69.157c38.193,0,69.155,30.96,69.155,69.157V91.879z"/>
		<path fill="#F36D21" d="M72.121,164C32.354,164,0,131.646,0,91.879V72.121C0,32.353,32.354,0,72.121,0s72.12,32.353,72.12,72.121
			v19.758C144.241,131.646,111.889,164,72.121,164z M72.121,5.928c-36.499,0-66.193,29.693-66.193,66.193v19.758
			c0,36.499,29.694,66.193,66.193,66.193c36.498,0,66.192-29.694,66.192-66.193V72.121C138.313,35.621,108.619,5.928,72.121,5.928z"
			/>
	</g>
	<g>
		<path fill="#F36D21" d="M23.817,52.201c-3.282-1.854-3.925-5.524-2.185-8.605c1.304-2.307,3.313-3.01,5-2.996l-0.099,2.885
			c-0.898,0.002-1.979,0.433-2.548,1.439c-0.954,1.687-0.341,3.606,1.361,4.568c1.688,0.953,3.662,0.495,4.613-1.192
			c0.43-0.759,0.558-1.708,0.457-2.254l-0.805-0.455l-1.312,2.324l-2.339-1.321l2.815-4.986l4.104,2.318
			c0.603,1.79,0.535,3.753-0.565,5.704C30.575,52.709,27.101,54.054,23.817,52.201z"/>
		<path fill="#F36D21" d="M36.005,43.807l-9.02-7.701l1.986-2.328l9.02,7.704L36.005,43.807z"/>
		<path fill="#F36D21" d="M35.028,35.553c-2.348-2.95-1.568-6.596,1.2-8.801c2.074-1.65,4.201-1.549,5.762-0.903l-1.173,2.639
			c-0.836-0.335-1.999-0.341-2.904,0.378c-1.517,1.208-1.669,3.216-0.449,4.748c1.208,1.517,3.21,1.833,4.727,0.625
			c0.682-0.544,1.155-1.376,1.269-1.92l-0.576-0.723l-2.088,1.661l-1.673-2.1l4.479-3.567l2.938,3.688
			c-0.112,1.887-0.911,3.681-2.665,5.078C41.104,38.557,37.378,38.503,35.028,35.553z"/>
		<path fill="#F36D21" d="M58.703,28.253l-2.865-7.3l0.085,8.391l-1.259,0.495l-5.662-6.202l2.864,7.3l-2.847,1.118l-4.333-11.042
			l3.955-1.553l4.708,5.184l-0.089-6.995l3.956-1.553l4.333,11.041L58.703,28.253z"/>
		<path fill="#F36D21" d="M71.39,26.343l-0.72-1.656l-4.661,0.365L65.558,26.8L62.1,27.07l3.525-12.173l3.847-0.301l5.375,11.476
			L71.39,26.343z M67.792,17.76l-1.158,4.567l2.997-0.233L67.792,17.76z"/>
		<path fill="#F36D21" d="M74.83,24.55l1.984-2.089c0.702,0.981,1.887,1.896,3.5,2.161c1.019,0.168,1.708-0.081,1.802-0.66
			c0.255-1.544-6.572-1.348-5.831-5.858c0.323-1.964,2.26-3.449,5.261-2.956c1.877,0.307,3.416,1.137,4.488,2.412l-2.022,1.993
			c-0.848-0.985-2.062-1.6-3.221-1.791c-0.876-0.142-1.312,0.093-1.395,0.6c-0.236,1.44,6.558,1.438,5.844,5.789
			c-0.386,2.352-2.381,3.628-5.52,3.112C77.351,26.874,75.824,25.849,74.83,24.55z"/>
		<path fill="#F36D21" d="M87.982,29.191l3.437-8.527l-3.083-1.243l0.997-2.474l8.988,3.623l-0.998,2.474l-3.068-1.236l-3.437,8.525
			L87.982,29.191z"/>
		<path fill="#F36D21" d="M94.981,32.25l6.757-9.744l7.144,4.954l-1.519,2.191l-4.631-3.211l-1.054,1.519l4.529,3.14l-1.521,2.192
			l-4.528-3.141l-1.145,1.651l4.632,3.21l-1.521,2.193L94.981,32.25z"/>
		<path fill="#F36D21" d="M107.729,43.126l1.635-4.143l-1.045-1.166l-2.967,2.661l-2.042-2.276l8.829-7.923l3.967,4.42
			c1.757,1.96,1.459,4.235-0.184,5.709c-1.534,1.378-3.186,1.188-4.226,0.616l-1.627,4.71L107.729,43.126z M113.858,38.08
			c0.61-0.546,0.5-1.333-0.046-1.942l-1.615-1.8l-1.893,1.699l1.614,1.8C112.465,38.444,113.237,38.638,113.858,38.08z"/>
		<path fill="#F36D21" d="M111.857,45.425l2.863,0.298c-0.347,1.156-0.352,2.651,0.423,4.091c0.486,0.91,1.104,1.306,1.62,1.028
			c1.378-0.741-2.936-6.032,1.089-8.192c1.754-0.944,4.112-0.311,5.549,2.366c0.899,1.676,1.182,3.402,0.824,5.028l-2.812-0.389
			c0.266-1.272,0.011-2.608-0.544-3.642c-0.421-0.784-0.872-0.984-1.327-0.741c-1.283,0.69,2.859,6.074-1.024,8.159
			c-2.1,1.128-4.326,0.325-5.831-2.478C111.55,48.837,111.434,47.004,111.857,45.425z"/>
	</g>
	<g>
		<path fill="#F36D21" d="M16.259,102.413l3.2-2.329l-0.23-1.372l-3.491,0.583l-0.448-2.681l10.397-1.739l0.87,5.206
			c0.386,2.308-0.922,3.872-2.855,4.195c-1.808,0.303-2.957-0.627-3.464-1.551l-3.463,2.759L16.259,102.413z M23.262,101.546
			c0.717-0.12,1.011-0.762,0.89-1.479l-0.354-2.119l-2.23,0.374l0.356,2.119C22.043,101.157,22.528,101.668,23.262,101.546z"/>
		<path fill="#F36D21" d="M20.418,115.33l1.208-1.057l-1.574-3.845l-1.602,0.09l-1.167-2.851l11.255-0.321l1.298,3.172l-8.25,7.664
			L20.418,115.33z M26.705,109.958l-4.18,0.259l1.013,2.472L26.705,109.958z"/>
		<path fill="#F36D21" d="M22.988,120.4l8.658-6.014l3.01,4.335c1.353,1.947,0.78,3.923-0.789,5.014
			c-1.558,1.081-3.609,0.928-4.961-1.02l-1.461-2.104l-2.906,2.021L22.988,120.4z M32.289,121.464
			c0.598-0.415,0.601-1.13,0.188-1.727l-1.229-1.766l-1.856,1.288l1.229,1.766C31.035,121.623,31.705,121.869,32.289,121.464z"/>
		<path fill="#F36D21" d="M29.963,129.626l7.633-7.269l1.875,1.968l-7.632,7.269L29.963,129.626z"/>
		<path fill="#F36D21" d="M34.188,134.067l6.325-8.437l3.54,2.655c2.657,1.991,3.371,5.018,1.409,7.634
			c-1.962,2.619-5.076,2.794-7.721,0.812L34.188,134.067z M43.236,134.251c0.978-1.302,0.951-2.901-0.592-4.058l-1.38-1.034
			l-3.479,4.642l1.367,1.023C40.631,135.935,42.297,135.503,43.236,134.251z"/>
		<path fill="#F36D21" d="M55.27,145.773l-0.533-3.92l-1.316-0.449l-1.141,3.35l-2.572-0.876l3.398-9.975l4.995,1.703
			c2.213,0.753,2.97,2.646,2.337,4.501c-0.591,1.734-1.952,2.306-3.007,2.312l0.784,4.357L55.27,145.773z M57.826,139.201
			c0.233-0.688-0.191-1.25-0.879-1.485l-2.034-0.693l-0.729,2.14l2.034,0.692C56.906,140.089,57.587,139.903,57.826,139.201z"/>
		<path fill="#F36D21" d="M61.385,147.399l1.297-10.466l7.674,0.95l-0.291,2.354l-4.975-0.616l-0.202,1.633l4.863,0.603
			l-0.291,2.354l-4.863-0.603l-0.221,1.774l4.975,0.615l-0.291,2.354L61.385,147.399z"/>
		<path fill="#F36D21" d="M71.462,146.988l1.286-2.213c0.811,0.704,2.021,1.254,3.472,1.153c0.915-0.064,1.461-0.42,1.424-0.938
			c-0.096-1.389-5.961,0.177-6.244-3.875c-0.123-1.767,1.249-3.446,3.946-3.636c1.687-0.118,3.188,0.286,4.375,1.17l-1.34,2.136
			c-0.936-0.679-2.113-0.961-3.153-0.888c-0.787,0.054-1.116,0.347-1.084,0.805c0.09,1.293,5.967-0.1,6.24,3.811
			c0.146,2.113-1.316,3.625-4.139,3.823C74.117,148.484,72.586,147.909,71.462,146.988z"/>
		<path fill="#F36D21" d="M83.569,147.298l-2.846-10.155l5.085-1.427c2.284-0.639,3.962,0.548,4.48,2.391
			c0.511,1.828-0.308,3.715-2.59,4.355l-2.466,0.69l0.955,3.411L83.569,147.298z M87.623,138.854
			c-0.196-0.701-0.87-0.938-1.57-0.741l-2.07,0.579l0.61,2.178l2.069-0.58C87.363,140.093,87.816,139.538,87.623,138.854z"/>
		<path fill="#F36D21" d="M92.12,139.354c-1.552-2.809-0.52-5.944,2.304-7.504c2.823-1.559,6.012-0.755,7.563,2.054
			c1.552,2.81,0.532,5.938-2.291,7.496C96.874,142.959,93.671,142.163,92.12,139.354z M99.565,135.242
			c-0.833-1.508-2.457-2.128-3.98-1.288c-1.522,0.841-1.876,2.555-1.044,4.062c0.826,1.495,2.473,2.121,3.994,1.281
			C100.059,138.456,100.39,136.736,99.565,135.242z"/>
		<path fill="#F36D21" d="M112.485,131.579l-7.418-1.443l4.147,4.475l-1.992,1.849l-7.171-7.732l2.054-1.902l7.073,1.353
			l-3.944-4.255l2.006-1.858l7.17,7.732L112.485,131.579z"/>
		<path fill="#F36D21" d="M116.93,126.818l-8.777-5.831l2.449-3.686c1.835-2.763,4.814-3.648,7.538-1.839
			c2.723,1.81,3.074,4.907,1.247,7.657L116.93,126.818z M116.601,117.778c-1.354-0.899-2.95-0.783-4.018,0.822l-0.953,1.433
			l4.83,3.21l0.944-1.421C118.428,120.283,117.903,118.645,116.601,117.778z"/>
		<path fill="#F36D21" d="M123.85,115.473l-9.823-3.831l2.809-7.201l2.21,0.86l-1.822,4.669l1.533,0.598l1.781-4.565l2.209,0.861
			l-1.781,4.566l1.663,0.648l1.822-4.67l2.209,0.863L123.85,115.473z"/>
		<path fill="#F36D21" d="M128.539,99.251l-3.784,1.161l-0.23,1.372l3.491,0.584l-0.448,2.682l-10.396-1.741l0.87-5.205
			c0.386-2.307,2.133-3.36,4.065-3.037c1.808,0.301,2.592,1.555,2.771,2.594l4.173-1.48L128.539,99.251z M121.635,97.792
			c-0.716-0.121-1.202,0.392-1.322,1.107l-0.354,2.121l2.229,0.371l0.355-2.119C122.661,98.556,122.368,97.913,121.635,97.792z"/>
	</g>
	<g>
		<g>
			<rect x="69.157" y="43.038" fill="#F36D21" width="5.928" height="9.862"/>
			<path fill="#F36D21" d="M77.472,46.001H66.769c-1.638,0-2.964-1.328-2.964-2.963c0-1.638,1.326-2.964,2.964-2.964h10.703
				c1.638,0,2.964,1.327,2.964,2.964C80.436,44.673,79.109,46.001,77.472,46.001z"/>
		</g>
		<g>
			<path fill="#F36D21" d="M102.177,61.079c-0.509,0-1.016-0.194-1.402-0.584l-4.968-5.005c-0.77-0.774-0.766-2.026,0.009-2.794
				c0.774-0.77,2.025-0.764,2.794,0.009l4.97,5.005c0.769,0.776,0.764,2.027-0.011,2.795
				C103.183,60.889,102.68,61.079,102.177,61.079z"/>
			<path fill="#F36D21" d="M94.095,64.174c-0.505,0-1.01-0.193-1.396-0.579c-0.771-0.771-0.771-2.022,0-2.793l5.599-5.598
				c0.771-0.771,2.021-0.771,2.794,0c0.771,0.771,0.771,2.022,0,2.794l-5.599,5.598C95.106,63.981,94.601,64.174,94.095,64.174z"/>
		</g>
		<g>
			<circle fill="#FFFFFF" cx="72.121" cy="84.335" r="31.194"/>
			<path fill="#79797A" d="M72.121,117.999c-18.562,0-33.665-15.104-33.665-33.664c0-18.562,15.103-33.662,33.665-33.662
				s33.663,15.1,33.663,33.662C105.784,102.896,90.684,117.999,72.121,117.999z M72.121,55.612
				c-15.839,0-28.725,12.884-28.725,28.723c0,15.837,12.886,28.725,28.725,28.725s28.724-12.888,28.724-28.725
				C100.845,68.497,87.96,55.612,72.121,55.612z"/>
		</g>
		<path fill="#F1F0F0" d="M92.746,60.784l-18.649-7.691h-3.951v31.243c0,0.801,0.482,1.521,1.223,1.827
			c0.244,0.1,0.5,0.148,0.753,0.148c0.517,0,1.022-0.202,1.4-0.583L95.549,63.57L92.746,60.784z"/>
		<path fill="#F36D21" d="M72.121,117.999c-18.562,0-33.665-15.104-33.665-33.664c0-18.562,15.103-33.662,33.665-33.662
			s33.663,15.1,33.663,33.662C105.784,102.896,90.684,117.999,72.121,117.999z M72.121,55.612
			c-15.839,0-28.725,12.884-28.725,28.723c0,15.837,12.886,28.725,28.725,28.725s28.724-12.888,28.724-28.725
			C100.845,68.497,87.96,55.612,72.121,55.612z"/>
		<g>
			<path fill="#F36D21" d="M72.121,62.208c-1.092,0-1.976-0.847-1.976-1.938v-0.077c0-1.092,0.884-1.976,1.976-1.976
				s1.976,0.884,1.976,1.976C74.097,61.283,73.213,62.208,72.121,62.208z"/>
			<path fill="#F36D21" d="M72.121,110.453c-1.092,0-1.976-0.885-1.976-1.975c0-1.093,0.884-2.015,1.976-2.015
				s1.976,0.845,1.976,1.937v0.078C74.097,109.568,73.213,110.453,72.121,110.453z"/>
			<path fill="#F36D21" d="M96.116,86.311c-1.092,0-2.015-0.886-2.015-1.976c0-1.093,0.846-1.977,1.937-1.977h0.078
				c1.091,0,1.976,0.884,1.976,1.977C98.092,85.425,97.207,86.311,96.116,86.311z"/>
			<path fill="#F36D21" d="M48.202,86.311h-0.077c-1.092,0-1.976-0.886-1.976-1.976c0-1.093,0.884-1.977,1.976-1.977
				c1.091,0,2.014,0.884,2.014,1.977C50.139,85.425,49.293,86.311,48.202,86.311z"/>
		</g>
		<path fill="#F36D21" d="M72.121,86.311c-0.505,0-1.011-0.192-1.396-0.578c-0.771-0.772-0.771-2.024,0-2.795l11.877-11.876
			c0.771-0.771,2.021-0.771,2.794,0c0.771,0.771,0.771,2.021,0,2.794L73.519,85.732C73.133,86.118,72.627,86.311,72.121,86.311z"/>
	</g>
	<g>
		<polygon fill="#F36D21" points="124.115,64.282 128.822,72.608 124.258,72.608 129.908,85.856 113.353,69.301 119.803,69.301 
			114.783,64.284 		"/>
		<path fill="#F36D21" d="M129.908,86.352c-0.127,0-0.254-0.051-0.35-0.146l-16.556-16.555c-0.142-0.141-0.184-0.354-0.107-0.539
			c0.076-0.184,0.256-0.304,0.457-0.304h5.258l-4.177-4.174c-0.14-0.142-0.183-0.354-0.106-0.538
			c0.076-0.185,0.257-0.305,0.456-0.305l9.332-0.002c0.178,0,0.342,0.096,0.43,0.251l4.707,8.326
			c0.086,0.153,0.085,0.342-0.004,0.492c-0.089,0.153-0.251,0.246-0.426,0.246h-3.817l5.357,12.56
			c0.093,0.218,0.018,0.471-0.178,0.604C130.101,86.322,130.005,86.352,129.908,86.352z M114.545,69.795l13.907,13.906
			l-4.648-10.897c-0.064-0.154-0.05-0.329,0.042-0.467c0.092-0.138,0.246-0.222,0.412-0.222h3.717l-4.147-7.338l-7.851,0.001
			l4.175,4.174c0.141,0.142,0.184,0.354,0.107,0.539c-0.076,0.186-0.257,0.304-0.456,0.304H114.545z"/>
	</g>
	<g>
		<polygon fill="#F36D21" points="20.127,64.282 15.421,72.608 19.985,72.608 14.334,85.856 30.889,69.301 24.442,69.301 
			29.457,64.284 		"/>
		<path fill="#F36D21" d="M14.334,86.352c-0.096,0-0.191-0.029-0.276-0.086c-0.196-0.133-0.271-0.386-0.178-0.604l5.357-12.56
			h-3.815c-0.175,0-0.337-0.092-0.426-0.246c-0.089-0.15-0.091-0.338-0.004-0.492l4.706-8.326c0.087-0.155,0.251-0.251,0.43-0.251
			l0,0l9.33,0.002c0.2,0,0.38,0.12,0.457,0.305c0.075,0.184,0.033,0.396-0.108,0.538l-4.171,4.174h5.254
			c0.199,0,0.38,0.12,0.456,0.304c0.077,0.186,0.034,0.398-0.106,0.539L14.684,86.206C14.588,86.301,14.462,86.352,14.334,86.352z
			 M16.267,72.115h3.718c0.165,0,0.32,0.083,0.411,0.222c0.093,0.139,0.108,0.313,0.043,0.467l-4.648,10.897l13.905-13.906h-5.254
			c-0.2,0-0.381-0.119-0.456-0.304c-0.077-0.185-0.035-0.397,0.106-0.539l4.173-4.174l-7.85-0.001L16.267,72.115z"/>
	</g>
</g>
</svg>
