<?xml version="1.0" encoding="utf-8"?>
<!-- Generator: Adobe Illustrator 22.1.0, SVG Export Plug-In . SVG Version: 6.00 Build 0)  -->
<svg version="1.1" id="Layer_1" xmlns="http://www.w3.org/2000/svg" xmlns:xlink="http://www.w3.org/1999/xlink" x="0px" y="0px"
	 viewBox="0 0 166 166" style="enable-background:new 0 0 166 166;" xml:space="preserve">
<style type="text/css">
	.st0{fill:#49C3D0;}
	.st1{fill:#F36D21;}
	.st2{fill:#FFFFFF;}
	.st3{fill:#FDD00F;}
</style>
<g>
	<g>
		<path class="st0" d="M153.8,91.8c0,39.1-31.6,70.9-70.6,70.9c-39,0-70.6-31.7-70.6-70.9V3h141.2V91.8z"/>
		<path class="st1" d="M83.2,165.7c-40.6,0-73.6-33.2-73.6-73.9V3c0-1.7,1.4-3,3-3h141.2c1.7,0,3,1.4,3,3v88.8
			C156.8,132.6,123.8,165.7,83.2,165.7z M15.6,6.1v85.8c0,37.4,30.3,67.8,67.6,67.8c37.3,0,67.6-30.4,67.6-67.8V6.1H15.6z"/>
	</g>
	<g>
		<path class="st2" d="M31.4,105.4c7-5,8.3-6.2,8.3-7.7c0-1.1-1-1.7-2.3-1.7c-1.7,0-3.1,0.7-4.2,1.8L30.9,95
			c1.7-1.9,4.3-2.7,6.5-2.7c3.8,0,6.5,2.1,6.5,5.4c0,2.5-1.8,4.6-6.1,7.4h6.2v3.6H31.4V105.4z"/>
		<path class="st2" d="M52.6,92.3c4.7,0,6.9,4.1,6.9,8.3c0,4.2-2.2,8.3-6.9,8.3c-4.7,0-6.9-4.1-6.9-8.3
			C45.7,96.4,47.9,92.3,52.6,92.3z M52.6,96c-1.9,0-2.7,1.8-2.7,4.6c0,2.8,0.8,4.7,2.7,4.7c1.9,0,2.7-1.8,2.7-4.7
			C55.3,97.8,54.5,96,52.6,96z"/>
	</g>
	<g>
		<path class="st2" d="M113.5,97.9l-2.7,2.7l-2.4-2.5l5.6-5.6h3.6v16.1h-4.2V97.9z"/>
		<path class="st2" d="M123,100.4c-1.7-0.7-3-1.8-3-3.7c0-3.1,3.4-4.3,6.6-4.3c3.1,0,6.6,1.2,6.6,4.3c0,1.9-1.3,3.1-3,3.7
			c1.9,0.7,3.3,2.2,3.3,4.1c0,3.1-3.3,4.5-6.8,4.5c-3.5,0-6.8-1.4-6.8-4.5C119.8,102.6,121.2,101.1,123,100.4z M126.6,102.1
			c-1,0.1-2.6,0.7-2.6,1.8c0,0.9,1.1,1.5,2.6,1.5c1.5,0,2.6-0.6,2.6-1.5C129.2,102.9,127.6,102.3,126.6,102.1z M126.6,95.8
			c-1.4,0-2.3,0.6-2.3,1.4c0,0.9,1.4,1.5,2.3,1.6c1-0.2,2.3-0.7,2.3-1.6C128.9,96.3,128,95.8,126.6,95.8z"/>
	</g>
	<g>
		<path class="st2" d="M48.5,139.9l5.7-9.1l5.2,3.2c1.8,1.1,1.9,2.8,1.2,4c-0.7,1.1-1.9,1.5-2.9,1.1c0.9,0.8,1.1,2.2,0.3,3.3
			c-0.8,1.3-2.4,1.9-4.2,0.8L48.5,139.9z M55.9,140.6c0.3-0.5,0.1-1-0.4-1.3l-2.4-1.5l-1,1.5l2.4,1.5
			C55,141.1,55.6,141.1,55.9,140.6z M57.9,136.9c0.3-0.4,0.1-0.9-0.4-1.2l-2.3-1.4l-0.9,1.4l2.3,1.4
			C57.1,137.4,57.6,137.4,57.9,136.9z"/>
		<path class="st2" d="M59.9,146.5l3.7-10.1l7.4,2.7l-0.8,2.3l-4.8-1.8l-0.6,1.6l4.7,1.7l-0.8,2.3l-4.7-1.7l-0.6,1.7l4.8,1.8
			l-0.8,2.3L59.9,146.5z"/>
		<path class="st2" d="M70.6,148.5l1.8-1.9c0.6,0.9,1.7,1.7,3.2,1.9c0.9,0.1,1.5-0.1,1.6-0.6c0.2-1.4-6-1.2-5.3-5.3
			c0.3-1.8,2-3.1,4.7-2.7c1.7,0.3,3.1,1,4.1,2.1l-1.8,1.8c-0.8-0.9-1.9-1.4-2.9-1.6c-0.8-0.1-1.2,0.1-1.3,0.6
			c-0.2,1.3,6,1.2,5.4,5.2c-0.3,2.1-2.1,3.3-5,2.9C72.9,150.6,71.5,149.7,70.6,148.5z"/>
		<path class="st2" d="M85.3,151.4l-0.3-8.3l-3,0.1l-0.1-2.4l8.8-0.3l0.1,2.4l-3,0.1l0.3,8.3L85.3,151.4z"/>
		<path class="st2" d="M97.7,144.7c-1.1-3.1,0.4-6.1,3.5-7.2c3.1-1.1,6.2,0.2,7.3,3.3c1.1,3.1-0.4,6.1-3.5,7.2
			C102,149.1,98.9,147.8,97.7,144.7z M105.9,141.7c-0.6-1.7-2.1-2.5-3.8-1.9c-1.7,0.6-2.3,2.3-1.7,3.9c0.6,1.6,2.2,2.5,3.8,1.9
			C105.9,145,106.5,143.3,105.9,141.7z"/>
		<path class="st2" d="M113.6,143.9l-5.8-9.1l6.7-4.3l1.3,2l-4.3,2.8l0.9,1.4l4.2-2.7l1.3,2l-4.2,2.7l2.3,3.6L113.6,143.9z"/>
	</g>
	<g>
		<g>
			<path class="st3" d="M113.6,73.8h-5.2c-1.1,0-2-0.9-2-2V47.4c0-1.1,0.9-2,2-2h4.3c4,0,7.2-3.2,7.2-7.2v-2.9c0-1.1,0.9-2,2-2H132
				c1.1,0,2,0.9,2,2v18.2C134,64.7,124.9,73.8,113.6,73.8z M110.4,69.8h3.2c9,0,16.4-7.3,16.4-16.4V37.3h-6.1v0.9
				c0,6.2-5,11.3-11.3,11.3h-2.3V69.8z"/>
		</g>
		<g>
			<path class="st3" d="M58,73.8h-5.2c-11.2,0-20.4-9.2-20.4-20.4V35.3c0-1.1,0.9-2,2-2h10.1c1.1,0,2,0.9,2,2v2.9
				c0,4,3.2,7.2,7.2,7.2H58c1.1,0,2,0.9,2,2v24.4C60,72.9,59.1,73.8,58,73.8z M36.4,37.3v16.2c0,9,7.3,16.4,16.4,16.4h3.2V49.4h-2.3
				c-6.2,0-11.3-5-11.3-11.3v-0.9H36.4z"/>
		</g>
		<g>
			<path class="st3" d="M84.2,95v11.1c0,6.4,5.2,11.6,11.6,11.6H70.6c6.4,0,11.6-5.2,11.6-11.6V95H84.2z"/>
			<path class="st3" d="M95.8,119.7C95.8,119.7,95.8,119.7,95.8,119.7H70.6c-1.1,0-2-0.9-2-2c0-1.1,0.9-2,2-2c5.3,0,9.6-4.3,9.6-9.6
				V95c0-1.1,0.9-2,2-2h2c1.1,0,2,0.9,2,2v11.1c0,5.3,4.3,9.6,9.6,9.6c0,0,0,0,0,0h0c1.1,0,2,0.9,2,2
				C97.8,118.8,96.9,119.7,95.8,119.7z M80.2,115.7h5.9c-1.3-1.3-2.3-2.8-2.9-4.4C82.5,112.9,81.5,114.4,80.2,115.7z"/>
		</g>
		<g>
			<path class="st3" d="M108.4,71.8c0,13.9-11.3,25.2-25.2,25.2C69.3,97,58,85.7,58,71.8V35.3h50.4V71.8z"/>
			<path class="st3" d="M83.2,99.1c-15,0-27.2-12.2-27.2-27.2V35.3c0-1.1,0.9-2,2-2h50.4c1.1,0,2,0.9,2,2v36.6
				C110.4,86.8,98.2,99.1,83.2,99.1z M60,37.3v34.5C60,84.6,70.4,95,83.2,95c12.8,0,23.2-10.4,23.2-23.2V37.3H60z"/>
		</g>
		<path class="st3" d="M108.4,126.8H58c-1.1,0-2-0.9-2-2c0-1.1,0.9-2,2-2h50.4c1.1,0,2,0.9,2,2C110.4,125.8,109.5,126.8,108.4,126.8
			z"/>
		<g>
			<polygon class="st3" points="96.8,117.7 69.6,117.7 62.5,124.7 103.9,124.7 			"/>
			<path class="st3" d="M103.9,126.8L103.9,126.8H62.5c-0.8,0-1.6-0.5-1.9-1.2c-0.3-0.8-0.1-1.6,0.4-2.2l7.1-7.1
				c0.4-0.4,0.9-0.6,1.4-0.6h27.2c0.5,0,1,0.2,1.4,0.6l7.1,7.1c0.6,0.6,0.8,1.4,0.4,2.2C105.4,126.3,104.7,126.8,103.9,126.8z
				 M67.4,122.7H99l-3-3H70.4L67.4,122.7z"/>
		</g>
	</g>
	<g>
		<polygon class="st2" points="83.2,47.4 79.4,57.8 68.5,58.3 77,65.2 74.1,75.9 83.2,69.7 92.3,75.9 89.3,65.2 97.9,58.3 87,57.8 
					"/>
		<path class="st2" d="M92.3,76.9c-0.2,0-0.4-0.1-0.6-0.2l-8.5-5.8l-8.5,5.8c-0.3,0.2-0.8,0.2-1.2,0c-0.3-0.2-0.5-0.7-0.4-1.1
			l2.8-10.1l-8-6.5c-0.3-0.3-0.5-0.7-0.3-1.1c0.1-0.4,0.5-0.7,0.9-0.7l10.2-0.4l3.6-9.8c0.1-0.4,0.5-0.7,0.9-0.7l0,0
			c0.4,0,0.8,0.3,0.9,0.7l3.6,9.8l10.2,0.4c0.4,0,0.8,0.3,0.9,0.7c0.1,0.4,0,0.8-0.3,1.1l-8,6.5l2.8,10.1c0.1,0.4,0,0.8-0.4,1.1
			C92.7,76.8,92.5,76.9,92.3,76.9z M83.2,68.7c0.2,0,0.4,0.1,0.6,0.2l6.8,4.6l-2.2-8.1c-0.1-0.4,0-0.8,0.3-1.1l6.5-5.2l-8.2-0.3
			c-0.4,0-0.8-0.3-0.9-0.7l-2.9-7.8l-2.9,7.8c-0.1,0.4-0.5,0.6-0.9,0.7l-8.2,0.3l6.5,5.2c0.3,0.3,0.4,0.7,0.3,1.1l-2.2,8.1l6.8-4.6
			C82.8,68.8,83,68.7,83.2,68.7z"/>
	</g>
	<g>
		<path class="st2" d="M21.9,19.7c0-3.8,2.9-6.3,6.6-6.3c2.7,0,4.3,1.4,5.2,2.9l-2.6,1.4c-0.5-0.8-1.4-1.5-2.6-1.5
			c-2,0-3.4,1.5-3.4,3.5c0,2,1.4,3.5,3.4,3.5c0.9,0,1.8-0.4,2.2-0.7v-0.9H28v-2.7h5.8v4.8C32.6,25,30.8,26,28.5,26
			C24.9,26,21.9,23.5,21.9,19.7z"/>
		<path class="st2" d="M36.6,25.7V13.6h3.1v12.1H36.6z"/>
		<path class="st2" d="M42.2,19.7c0-3.8,2.9-6.3,6.6-6.3c2.7,0,4.3,1.4,5.2,2.9l-2.6,1.4c-0.5-0.8-1.4-1.5-2.6-1.5
			c-2,0-3.4,1.5-3.4,3.5c0,2,1.4,3.5,3.4,3.5c0.9,0,1.8-0.4,2.2-0.7v-0.9h-2.7v-2.7h5.8v4.8C52.8,25,51,26,48.7,26
			C45.1,26,42.2,23.5,42.2,19.7z"/>
		<path class="st2" d="M67.5,25.7v-8l-3.1,8H63l-3.1-8v8h-3.1V13.6h4.3l2.5,6.7l2.5-6.7h4.3v12.1H67.5z"/>
		<path class="st2" d="M81.9,25.7L81.3,24h-4.8l-0.6,1.7h-3.5l4.6-12.1h3.9l4.6,12.1H81.9z M78.9,16.7l-1.5,4.6h3.1L78.9,16.7z"/>
		<path class="st2" d="M86.3,24l1.7-2.4c0.9,0.9,2.2,1.6,3.9,1.6c1.1,0,1.7-0.4,1.7-1c0-1.6-6.8-0.3-6.8-4.9c0-2,1.7-3.8,4.8-3.8
			c1.9,0,3.6,0.6,4.9,1.7l-1.7,2.3c-1-0.9-2.3-1.3-3.5-1.3c-0.9,0-1.3,0.3-1.3,0.8c0,1.5,6.8,0.4,6.8,4.9c0,2.4-1.8,4-5,4
			C89.2,26,87.5,25.2,86.3,24z"/>
		<path class="st2" d="M101.5,25.7v-9.4h-3.4v-2.7h9.9v2.7h-3.4v9.4H101.5z"/>
		<path class="st2" d="M110.3,25.7V13.6h8.9v2.7h-5.8v1.9h5.6V21h-5.6V23h5.8v2.7H110.3z"/>
		<path class="st2" d="M128.7,25.7l-2-4.1h-1.6v4.1h-3.1V13.6h6.1c2.7,0,4.2,1.8,4.2,4c0,2.1-1.3,3.2-2.4,3.6l2.5,4.4H128.7z
			 M129.1,17.6c0-0.8-0.7-1.3-1.5-1.3h-2.5V19h2.5C128.4,19,129.1,18.5,129.1,17.6z"/>
		<path class="st2" d="M134,24l1.7-2.4c0.9,0.9,2.2,1.6,3.9,1.6c1.1,0,1.7-0.4,1.7-1c0-1.6-6.8-0.3-6.8-4.9c0-2,1.7-3.8,4.8-3.8
			c1.9,0,3.6,0.6,4.9,1.7l-1.7,2.3c-1-0.9-2.3-1.3-3.5-1.3c-0.9,0-1.3,0.3-1.3,0.8c0,1.5,6.8,0.4,6.8,4.9c0,2.4-1.8,4-5,4
			C136.9,26,135.2,25.2,134,24z"/>
	</g>
</g>
</svg>
