<?xml version="1.0" encoding="utf-8"?>
<!-- Generator: Adobe Illustrator 16.0.0, SVG Export Plug-In . SVG Version: 6.00 Build 0)  -->
<!DOCTYPE svg PUBLIC "-//W3C//DTD SVG 1.1//EN" "http://www.w3.org/Graphics/SVG/1.1/DTD/svg11.dtd">
<svg version="1.1" id="Layer_1" xmlns="http://www.w3.org/2000/svg" xmlns:xlink="http://www.w3.org/1999/xlink" x="0px" y="0px"
	 width="134.41px" height="165.007px" viewBox="0 0 134.41 165.007" enable-background="new 0 0 134.41 165.007"
	 xml:space="preserve">
<g>
	<g>
		<polyline fill="#FFFFFF" points="67.205,2.781 131.63,33.094 131.63,162.226 2.781,162.226 2.781,33.094 67.205,2.781 		"/>
		<path fill="#F36D21" d="M131.63,165.007H2.781c-1.535,0-2.781-1.245-2.781-2.781V33.094c0-1.077,0.623-2.058,1.597-2.517
			L66.021,0.265c0.751-0.353,1.618-0.353,2.368,0l64.424,30.313c0.975,0.459,1.597,1.439,1.597,2.517v129.131
			C134.41,163.762,133.165,165.007,131.63,165.007z M5.562,159.445h123.286V34.859L67.205,5.854L5.562,34.859V159.445z"/>
	</g>
	<g>
		<polyline fill="#C5E2BB" points="131.63,162.226 2.781,162.226 2.781,33.094 		"/>
		<path fill="#F36D21" d="M131.63,165.007H2.781c-1.535,0-2.781-1.245-2.781-2.781V33.094c0-1.536,1.246-2.781,2.781-2.781
			s2.781,1.245,2.781,2.781v126.351H131.63c1.535,0,2.78,1.244,2.78,2.78S133.165,165.007,131.63,165.007z"/>
	</g>
	<g>
		<path fill="#F36D21" d="M24.738,137.946l-4.887-12.982h3.797l3.21,9.362l3.192-9.362h3.796l-4.886,12.982H24.738z"/>
		<path fill="#F36D21" d="M35.77,137.946v-12.982h9.518v2.921h-6.17v2.024h6.034v2.918h-6.034v2.2h6.17v2.919H35.77z"/>
		<path fill="#F36D21" d="M55.66,137.946l-2.181-4.359h-1.712v4.359H48.42v-12.982h6.499c2.881,0,4.516,1.908,4.516,4.322
			c0,2.258-1.361,3.463-2.589,3.893l2.646,4.768H55.66z M56.029,129.266c0-0.895-0.721-1.381-1.615-1.381h-2.646v2.782h2.646
			C55.309,130.667,56.029,130.181,56.029,129.266z"/>
		<path fill="#F36D21" d="M62.259,137.946v-12.982h3.348v12.982H62.259z"/>
		<path fill="#F36D21" d="M68.943,137.946v-12.982h9.518v2.921h-6.17v2.024h6.034v2.918h-6.034v5.119H68.943z"/>
		<path fill="#F36D21" d="M81.266,137.946v-12.982h3.348v12.982H81.266z"/>
		<path fill="#F36D21" d="M87.95,137.946v-12.982h9.518v2.921h-6.17v2.024h6.034v2.918h-6.034v2.2h6.17v2.919H87.95z"/>
		<path fill="#F36D21" d="M100.6,137.946v-12.982h5.449c4.087,0,7.027,2.454,7.027,6.482s-2.94,6.5-7.007,6.5H100.6z
			 M109.65,131.446c0-2.005-1.208-3.562-3.581-3.562h-2.122v7.143h2.102C108.327,135.027,109.65,133.372,109.65,131.446z"/>
		<path fill="#F36D21" d="M26.364,151.851v-9.896h5.609c1.973,0,2.893,1.276,2.893,2.522c0,1.232-0.757,2.062-1.69,2.27
			c1.054,0.164,1.885,1.174,1.885,2.419c0,1.439-0.966,2.686-2.908,2.686H26.364z M32.271,144.952c0-0.476-0.357-0.772-0.875-0.772
			h-2.479v1.544h2.479C31.913,145.724,32.271,145.44,32.271,144.952z M32.464,148.779c0-0.488-0.356-0.831-0.979-0.831h-2.567v1.677
			h2.567C32.093,149.625,32.464,149.313,32.464,148.779z"/>
		<path fill="#F36D21" d="M36.611,146.91c0-3.012,2.271-5.119,5.298-5.119s5.281,2.107,5.281,5.119s-2.254,5.119-5.281,5.119
			S36.611,149.922,36.611,146.91z M44.594,146.91c0-1.618-1.054-2.863-2.685-2.863c-1.633,0-2.701,1.245-2.701,2.863
			c0,1.603,1.068,2.863,2.701,2.863C43.54,149.773,44.594,148.513,44.594,146.91z"/>
		<path fill="#F36D21" d="M48.698,146.91c0-3.012,2.271-5.119,5.296-5.119c3.027,0,5.283,2.107,5.283,5.119
			s-2.256,5.119-5.283,5.119C50.969,152.029,48.698,149.922,48.698,146.91z M56.681,146.91c0-1.618-1.054-2.863-2.687-2.863
			c-1.631,0-2.699,1.245-2.699,2.863c0,1.603,1.068,2.863,2.699,2.863C55.627,149.773,56.681,148.513,56.681,146.91z"/>
		<path fill="#F36D21" d="M67.137,151.851l-2.597-3.724l-0.668,0.831v2.893h-2.551v-9.896h2.551v4.066l3.042-4.066h3.146
			l-3.844,4.629l4.052,5.268H67.137z"/>
		<path fill="#F36D21" d="M71.753,151.851v-9.896h2.553v9.896H71.753z"/>
		<path fill="#F36D21" d="M83.601,151.851l-4.186-5.728v5.728h-2.551v-9.896h2.625l4.007,5.445v-5.445h2.567v9.896H83.601z"/>
		<path fill="#F36D21" d="M88.093,146.91c0-3.146,2.404-5.119,5.355-5.119c2.213,0,3.547,1.172,4.229,2.404l-2.137,1.111
			c-0.371-0.651-1.128-1.26-2.093-1.26c-1.617,0-2.759,1.231-2.759,2.863c0,1.617,1.142,2.863,2.759,2.863
			c0.728,0,1.47-0.297,1.825-0.594v-0.771h-2.226v-2.239h4.778v3.932c-1.054,1.172-2.508,1.929-4.378,1.929
			C90.497,152.029,88.093,150.056,88.093,146.91z"/>
		<path fill="#F36D21" d="M99.365,150.456l1.351-1.988c0.713,0.712,1.811,1.306,3.176,1.306c0.859,0,1.394-0.297,1.394-0.786
			c0-1.306-5.593-0.223-5.593-4.035c0-1.662,1.395-3.146,3.933-3.146c1.586,0,2.968,0.475,4.02,1.38l-1.395,1.915
			c-0.831-0.698-1.913-1.039-2.893-1.039c-0.742,0-1.068,0.251-1.068,0.683c0,1.217,5.594,0.297,5.594,3.976
			c0,1.989-1.47,3.31-4.126,3.31C101.755,152.029,100.36,151.391,99.365,150.456z"/>
	</g>
	<g>
		<g>
			<rect x="62.118" y="41.104" fill="#FDD00F" width="9.416" height="24.282"/>
			<path fill="#F36D21" d="M71.534,66.777h-9.416c-0.768,0-1.391-0.623-1.391-1.391V41.104c0-0.768,0.623-1.391,1.391-1.391h9.416
				c0.768,0,1.391,0.623,1.391,1.391v24.282C72.925,66.154,72.302,66.777,71.534,66.777z M63.508,63.996h6.636V42.494h-6.636V63.996
				z"/>
		</g>
		<g>
			<rect x="59.873" y="35.397" fill="#FDD00F" width="13.906" height="5.707"/>
			<path fill="#F36D21" d="M73.779,42.494H59.873c-0.768,0-1.391-0.623-1.391-1.39v-5.707c0-0.768,0.623-1.391,1.391-1.391h13.906
				c0.768,0,1.391,0.623,1.391,1.391v5.707C75.17,41.872,74.547,42.494,73.779,42.494z M61.264,39.713h11.125v-2.926H61.264V39.713z
				"/>
		</g>
		<g>
			<polygon fill="#F36D21" points="66.825,16.646 64.973,21.719 59.663,21.942 63.83,25.298 62.395,30.507 66.825,27.511 
				71.254,30.507 69.817,25.298 73.989,21.942 68.674,21.719 			"/>
			<path fill="#F36D21" d="M71.254,30.971c-0.091,0-0.182-0.026-0.261-0.08l-4.168-2.821l-4.17,2.821
				c-0.163,0.109-0.373,0.106-0.53-0.007s-0.229-0.312-0.178-0.5l1.356-4.915l-3.933-3.166c-0.15-0.121-0.21-0.323-0.15-0.506
				c0.062-0.184,0.229-0.311,0.422-0.319l5.001-0.209l1.745-4.782c0.067-0.183,0.241-0.304,0.437-0.304l0,0
				c0.193,0,0.367,0.122,0.435,0.305l1.743,4.781l5.006,0.209c0.192,0.008,0.36,0.135,0.42,0.319
				c0.062,0.184,0.002,0.385-0.148,0.506l-3.934,3.166l1.353,4.915c0.052,0.188-0.019,0.387-0.176,0.5
				C71.441,30.942,71.348,30.971,71.254,30.971z M60.912,22.354l3.21,2.583c0.143,0.116,0.204,0.306,0.155,0.484l-1.103,3.999
				l3.39-2.293c0.157-0.107,0.364-0.107,0.52,0l3.39,2.293l-1.103-3.999c-0.05-0.178,0.012-0.368,0.157-0.484l3.21-2.583
				l-4.085-0.171c-0.187-0.008-0.351-0.128-0.414-0.305l-1.414-3.879l-1.416,3.88c-0.065,0.176-0.229,0.296-0.416,0.304
				L60.912,22.354z"/>
		</g>
		<rect x="65.435" y="24.417" fill="#F36D21" width="2.781" height="10.981"/>
		<path fill="#F36D21" d="M66.825,66.777c-0.768,0-1.391-0.623-1.391-1.391V41.104c0-0.768,0.623-1.391,1.391-1.391
			s1.391,0.623,1.391,1.391v24.282C68.216,66.154,67.593,66.777,66.825,66.777z"/>
		<g>
			<rect x="56.093" y="65.386" fill="#F36D21" width="21.467" height="5.562"/>
			<path fill="#F36D21" d="M77.56,71.875H56.093c-0.513,0-0.927-0.415-0.927-0.927v-5.562c0-0.512,0.414-0.927,0.927-0.927H77.56
				c0.511,0,0.927,0.415,0.927,0.927v5.562C78.486,71.46,78.07,71.875,77.56,71.875z M57.02,70.021h19.613v-3.708H57.02V70.021z"/>
		</g>
	</g>
	<g>
		<path fill="#F36D21" d="M28.97,113.565v-7.776c15.107-10.648,16.544-11.887,16.544-14.363c0-1.585-1.685-2.576-3.814-2.576
			c-3.517,0-6.191,1.288-8.717,3.418l-5.448-6.637c3.813-4.062,9.36-5.597,13.967-5.597c8.569,0,14.166,4.754,14.166,11.392
			c0,4.507-2.575,8.222-10.451,13.423h10.748v8.717H28.97z"/>
		<path fill="#F36D21" d="M58.39,109.504l5.35-7.033c2.278,1.882,5.497,2.873,8.37,2.873c3.318,0,4.656-1.338,4.656-2.725
			c0-1.485-1.288-2.724-4.359-2.724c-2.525,0-4.457,0.693-6.142,2.278l-6.885-1.585v-20.06h25.261v8.717H69.386v4.656
			c1.585-1.536,4.11-2.526,6.884-2.526c5.646,0,10.649,4.21,10.649,10.798c0,7.28-5.448,11.986-14.71,11.986
			C66.314,114.16,61.609,112.426,58.39,109.504z"/>
		<path fill="#F36D21" stroke="#F36D21" stroke-miterlimit="10" d="M100.324,99.696v6.953h-4.18v-6.953h-6.052v-3.782h6.052v-6.665
			h4.18v6.665h6.052v3.782H100.324z"/>
	</g>
</g>
</svg>
