<?xml version="1.0" encoding="utf-8"?>
<!-- Generator: Adobe Illustrator 16.0.0, SVG Export Plug-In . SVG Version: 6.00 Build 0)  -->
<!DOCTYPE svg PUBLIC "-//W3C//DTD SVG 1.1//EN" "http://www.w3.org/Graphics/SVG/1.1/DTD/svg11.dtd">
<svg version="1.1" id="Layer_1" xmlns="http://www.w3.org/2000/svg" xmlns:xlink="http://www.w3.org/1999/xlink" x="0px" y="0px"
	 width="149.945px" height="165.093px" viewBox="0 0 149.945 165.093" enable-background="new 0 0 149.945 165.093"
	 xml:space="preserve">
<g>
	<path fill="#F36D21" d="M146.515,36.192C107.002-7.49,42.943-7.49,3.432,36.192v92.709c39.511,43.68,103.568,43.68,143.08,0
		L146.515,36.192z"/>
	<path fill="#49C3D0" d="M74.973,165.093c-28.008,0-54.319-12.035-74.085-33.89C0.314,130.572,0,129.751,0,128.902V36.192
		c0-0.851,0.317-1.671,0.887-2.302C20.656,12.035,46.966,0,74.973,0c28.007,0,54.317,12.035,74.086,33.89
		c0.57,0.631,0.887,1.452,0.887,2.302l-0.003,92.709c0,0.85-0.313,1.67-0.887,2.302C129.29,153.058,102.979,165.093,74.973,165.093z
		 M6.864,127.567c18.342,19.785,42.48,30.662,68.109,30.662c25.627,0,49.764-10.877,68.106-30.662l0.002-90.041
		C124.736,17.741,100.6,6.862,74.973,6.862c-25.626,0-49.765,10.879-68.109,30.664V127.567z"/>
</g>
<g>
	<path fill="#FFFFFF" d="M27.885,53.919l-9.57-12.854l3.315-2.47l7.417,9.965l5.163-3.846l2.154,2.891L27.885,53.919z"/>
	<path fill="#FFFFFF" d="M34.188,39.197c-2.197-4.353-0.451-9.056,3.924-11.263c4.375-2.21,9.176-0.807,11.373,3.549
		c2.196,4.354,0.472,9.045-3.904,11.252C41.205,44.943,36.384,43.551,34.188,39.197z M45.73,33.375
		c-1.18-2.336-3.612-3.371-5.97-2.18c-2.361,1.19-2.996,3.771-1.818,6.109c1.169,2.316,3.633,3.36,5.995,2.169
		C46.294,38.283,46.897,35.691,45.73,33.375z"/>
	<path fill="#FFFFFF" d="M59.05,37.172l-1.491-6.288l-8.115-7.902l4.536-1.074l4.75,4.95l1.98-6.544l4.558-1.078L61.58,29.935
		l1.488,6.287L59.05,37.172z"/>
	<path fill="#FFFFFF" d="M80.126,35.149l-0.743-2.322L73.063,32.7l-0.836,2.287l-4.685-0.092l6.354-15.9l5.211,0.108l5.703,16.143
		L80.126,35.149z M76.431,23.133l-2.163,5.985l4.06,0.083L76.431,23.133z"/>
	<path fill="#FFFFFF" d="M86.669,36.025l4.321-15.427l3.976,1.113L91.62,33.668l6.198,1.738l-0.973,3.468L86.669,36.025z"/>
	<path fill="#FFFFFF" d="M100.922,40.752l5.326-11.219l-4.059-1.926l1.544-3.254l11.826,5.613l-1.546,3.253l-4.035-1.914
		l-5.324,11.218L100.922,40.752z"/>
	<path fill="#FFFFFF" d="M115.222,48.868l3.782-5.234l0.677-11.305l3.774,2.729l-0.639,6.827l6.245-2.773l3.794,2.742l-10.504,4.201
		l-3.784,5.235L115.222,48.868z"/>
</g>
<g>
	<path fill="#FFFFFF" d="M50.998,61.78l-0.529-1.538h-4.213l-0.53,1.538h-3.123l4.021-10.688h3.477l4.021,10.688H50.998z
		 M48.372,53.816l-1.363,4.021h2.708L48.372,53.816z"/>
	<path fill="#FFFFFF" d="M63.747,61.78l-1.619-6.697l-1.614,6.697h-2.92l-3.059-10.688h3.093l1.618,7.129l1.827-7.129h2.114
		l1.826,7.129l1.603-7.129h3.109l-3.06,10.688H63.747z"/>
	<path fill="#FFFFFF" d="M78.541,61.78l-0.531-1.538h-4.213l-0.529,1.538h-3.125l4.022-10.688h3.477l4.022,10.688H78.541z
		 M75.911,53.816l-1.361,4.021h2.708L75.911,53.816z"/>
	<path fill="#FFFFFF" d="M89.627,61.78l-1.794-3.588h-1.41v3.588h-2.758V51.092h5.354c2.372,0,3.717,1.571,3.717,3.556
		c0,1.86-1.124,2.853-2.133,3.208l2.18,3.924H89.627z M89.93,54.635c0-0.739-0.592-1.138-1.328-1.138h-2.179v2.29h2.179
		C89.338,55.787,89.93,55.387,89.93,54.635z"/>
	<path fill="#FFFFFF" d="M95.462,61.78V51.092h4.487c3.364,0,5.784,2.02,5.784,5.337c0,3.316-2.42,5.351-5.77,5.351H95.462z
		 M102.913,56.429c0-1.65-0.993-2.932-2.949-2.932h-1.747v5.879h1.732C101.823,59.376,102.913,58.015,102.913,56.429z"/>
</g>
<g>
	<g>
		<polygon fill="#49C3D0" points="74.965,67.75 64.813,95.558 35.688,96.788 58.548,115.191 50.687,143.76 74.965,127.323 
			99.247,143.76 91.381,115.191 114.257,96.788 85.113,95.558 		"/>
		<path fill="#FFFFFF" d="M50.687,145.626c-0.381,0-0.763-0.118-1.087-0.35c-0.634-0.455-0.919-1.259-0.713-2.011l7.539-27.391
			L34.521,98.239c-0.604-0.486-0.845-1.295-0.602-2.034c0.242-0.738,0.915-1.248,1.691-1.281l27.879-1.173l9.724-26.64
			c0.269-0.735,0.969-1.226,1.752-1.226l0,0c0.783,0,1.483,0.491,1.75,1.227l9.721,26.639l27.902,1.173
			c0.772,0.033,1.449,0.545,1.691,1.281c0.243,0.739,0.002,1.549-0.603,2.034l-21.923,17.637l7.538,27.391
			c0.21,0.752-0.074,1.556-0.711,2.011c-0.634,0.457-1.485,0.466-2.131,0.029l-23.235-15.732L51.73,145.306
			C51.416,145.517,51.05,145.626,50.687,145.626z M74.965,125.458c0.364,0,0.729,0.109,1.045,0.321l20.1,13.607l-6.522-23.699
			c-0.199-0.718,0.046-1.483,0.628-1.95l19.014-15.295L85.03,97.421c-0.749-0.033-1.411-0.516-1.672-1.226l-8.394-23.009
			l-8.401,23.011c-0.256,0.709-0.918,1.19-1.672,1.224l-24.178,1.021l19.005,15.296c0.578,0.466,0.826,1.232,0.63,1.949
			l-6.526,23.699l20.097-13.607C74.233,125.567,74.598,125.458,74.965,125.458z"/>
	</g>
	<g>
		<path fill="#FFFFFF" d="M74.896,110.699c-0.131,0-0.259-0.021-0.387-0.062L35.307,97.968c-0.653-0.209-1.012-0.911-0.8-1.563
			c0.209-0.653,0.906-1.013,1.564-0.802l37.583,12.147l0.077-38.071c0.001-0.685,0.558-1.24,1.242-1.24c0.001,0,0.001,0,0.001,0
			c0.689,0.001,1.245,0.557,1.241,1.246l-0.076,39.773c-0.004,0.395-0.192,0.769-0.514,1.003
			C75.409,110.618,75.152,110.699,74.896,110.699z"/>
		<path fill="#FFFFFF" d="M50.684,145.004c-0.247,0-0.498-0.075-0.713-0.227c-0.561-0.396-0.698-1.173-0.302-1.732l24.208-34.307
			c0.399-0.561,1.172-0.693,1.734-0.299c0.562,0.395,0.694,1.171,0.298,1.731l-24.208,34.305
			C51.458,144.822,51.074,145.004,50.684,145.004z"/>
		<path fill="#FFFFFF" d="M74.925,110.699c-0.528,0-1.014-0.336-1.185-0.86c-0.209-0.653,0.147-1.355,0.8-1.566l39.208-12.669
			c0.658-0.211,1.354,0.148,1.563,0.802c0.21,0.652-0.146,1.354-0.799,1.563l-39.208,12.668
			C75.178,110.678,75.049,110.699,74.925,110.699z"/>
		<path fill="#FFFFFF" d="M99.133,145.004c-0.389,0-0.774-0.183-1.017-0.526l-24.237-34.307c-0.397-0.559-0.264-1.336,0.298-1.731
			c0.563-0.396,1.338-0.262,1.732,0.298l24.237,34.305c0.396,0.562,0.264,1.337-0.299,1.734
			C99.63,144.929,99.38,145.004,99.133,145.004z"/>
	</g>
	<g>
		<path fill="#FFFFFF" d="M74.868,127.026c0,0,0,0-0.002,0c-0.688-0.001-1.24-0.557-1.24-1.244l0.031-16.131
			c0.003-0.397,0.191-0.77,0.511-1.007c0.324-0.23,0.738-0.299,1.115-0.174l15.898,5.139c0.654,0.211,1.013,0.911,0.802,1.564
			c-0.211,0.651-0.908,1.014-1.566,0.799l-14.276-4.613l-0.03,14.426C76.11,126.472,75.555,127.026,74.868,127.026z"/>
		<path fill="#FFFFFF" d="M74.9,110.894c-0.249,0-0.5-0.074-0.716-0.227c-0.561-0.397-0.695-1.173-0.3-1.731l9.818-13.914
			c0.395-0.562,1.172-0.695,1.732-0.301c0.56,0.394,0.694,1.172,0.3,1.733l-9.818,13.912
			C75.674,110.711,75.291,110.894,74.9,110.894z"/>
		<path fill="#FFFFFF" d="M58.989,116.034c-0.527,0-1.014-0.335-1.185-0.86c-0.209-0.653,0.146-1.354,0.8-1.564l15.902-5.139
			c0.655-0.212,1.354,0.147,1.563,0.799c0.21,0.654-0.146,1.354-0.799,1.564l-15.902,5.139
			C59.243,116.015,59.116,116.034,58.989,116.034z"/>
		<path fill="#FFFFFF" d="M74.901,110.894c-0.392,0-0.774-0.183-1.017-0.525l-9.832-13.914c-0.396-0.562-0.264-1.34,0.297-1.733
			c0.565-0.398,1.337-0.264,1.733,0.296l9.831,13.917c0.397,0.561,0.266,1.336-0.296,1.731
			C75.399,110.82,75.149,110.894,74.901,110.894z"/>
	</g>
</g>
<path fill="#FFFFFF" d="M127.733,82.354H99.197c-1.194,0-2.164-0.766-2.164-1.716c0-0.946,0.97-1.715,2.164-1.715h28.536
	c1.196,0,2.167,0.769,2.167,1.715C129.9,81.587,128.93,82.354,127.733,82.354z"/>
<path fill="#FFFFFF" d="M50.287,82.354H21.75c-1.195,0-2.165-0.766-2.165-1.716c0-0.946,0.97-1.715,2.165-1.715h28.536
	c1.195,0,2.165,0.769,2.165,1.715C52.451,81.587,51.481,82.354,50.287,82.354z"/>
</svg>
